# xmcd
#
# Track frame offsets:
#	150
#	19376
#	36578
#	51784
#	70745
#	89772
#	110554
#	128263
#	141413
#	161534
#	177523
#	194203
#	213696
#	233029
#	249980
#	270171
#	288480
#
# Disc length: 4220 seconds
#
# Revision: 1
# Processed by: cddbd v1.5.2PL0 Copyright (c) Steve Scherf et al.
# Submitted via: audiograbber 1.83.01
#
DISCID=06107a11
DTITLE=Various Artist - Kimberlite R&B Vol2
DYEAR=2006
DGENRE=R&B
TTITLE0=Gèn Renard - Mensonge (Ft Jay-jay)
TTITLE1=Teeyah - Pour Y Arriver (Ft Ste)
TTITLE2=Lamia - Youpi Ca Y Est
TTITLE3=Cedric Nadeau - Toi Et Moi (Ft Changing face)
TTITLE4=Abysse - Un Homme Fort
TTITLE5=Ruby - Je Rêve
TTITLE6=Vibe - Sans Complexe (Ft Truth hurts)
TTITLE7=Kimy - Simplement Te Dire
TTITLE8=Arsenik - Reste Vrai (Ft Joce)
TTITLE9=Zakia - Elle
TTITLE10=Evaanz - Toutes Tes Peines
TTITLE11=Love-L - Spend The Life
TTITLE12=Jay - Trahi (Ft Jefferson)
TTITLE13=Landry - Blesser
TTITLE14=Quinze - Reste Toi Même
TTITLE15=Joseph Baron - Ghetto
TTITLE16=Bona - Chérie Reviens
EXTD=
EXTT0=
EXTT1=
EXTT2=
EXTT3=
EXTT4=
EXTT5=
EXTT6=
EXTT7=
EXTT8=
EXTT9=
EXTT10=
EXTT11=
EXTT12=
EXTT13=
EXTT14=
EXTT15=
EXTT16=
PLAYORDER=
